<svg width="89" height="89" viewBox="0 0 89 89" fill="none" xmlns="http://www.w3.org/2000/svg">
<circle cx="44.5" cy="44.5" r="43" fill="#312783" stroke="#312783" stroke-width="3"/>
<path d="M32.106 55.3798L29.5 75L43.2652 66.7409C43.7142 66.4715 43.9386 66.3368 44.1783 66.2842C44.3902 66.2376 44.6098 66.2376 44.8217 66.2842C45.0614 66.3368 45.2858 66.4715 45.7348 66.7409L59.5 75L56.8958 55.3713M57.7777 21.7466C58.241 22.8672 59.1303 23.7579 60.2501 24.2229L64.1768 25.8494C65.2974 26.3136 66.1877 27.204 66.6519 28.3246C67.116 29.4453 67.116 30.7044 66.6519 31.8251L65.0266 35.7491C64.5622 36.8702 64.5615 38.1306 65.028 39.2512L66.6505 43.174C66.8806 43.7291 66.9991 44.324 66.9992 44.9249C66.9993 45.5257 66.881 46.1207 66.6511 46.6758C66.4212 47.2309 66.0841 47.7353 65.6592 48.1601C65.2343 48.5849 64.7298 48.9218 64.1746 49.1516L60.2508 50.7769C59.1303 51.2403 58.2396 52.1296 57.7746 53.2495L56.1481 57.1763C55.684 58.2969 54.7936 59.1873 53.673 59.6515C52.5524 60.1157 51.2933 60.1157 50.1727 59.6515L46.2489 58.0261C45.1283 57.5631 43.8696 57.564 42.7497 58.0287L38.823 59.6529C37.703 60.1161 36.445 60.1157 35.3253 59.6519C34.2056 59.188 33.3158 58.2987 32.8513 57.1793L31.2244 53.2513C30.7611 52.1308 29.8717 51.2401 28.7519 50.7751L24.8252 49.1485C23.7051 48.6845 22.8151 47.7947 22.3507 46.6747C21.8864 45.5547 21.8858 44.2962 22.349 43.1757L23.9743 39.2517C24.4373 38.1311 24.4364 36.8724 23.9717 35.7524L22.3487 31.8228C22.1186 31.2677 22.0001 30.6728 22 30.0719C21.9999 29.4711 22.1182 28.8761 22.3481 28.321C22.5781 27.7659 22.9151 27.2615 23.34 26.8367C23.7649 26.4119 24.2694 26.075 24.8246 25.8452L28.7484 24.2199C29.868 23.7569 30.7581 22.8687 31.2234 21.7501L32.8499 17.8233C33.3141 16.7027 34.2044 15.8123 35.325 15.3481C36.4456 14.884 37.7047 14.884 38.8253 15.3481L42.7492 16.9735C43.8698 17.4366 45.1284 17.4356 46.2484 16.9709L50.1767 15.3507C51.2971 14.8867 52.556 14.8868 53.6764 15.3509C54.7967 15.815 55.6869 16.7051 56.1512 17.8255L57.7781 21.7534L57.7777 21.7466Z" stroke="#63E2C4" stroke-width="4" stroke-linecap="round" stroke-linejoin="round"/>
</svg>
