<?xml version="1.0" encoding="UTF-8" standalone="no"?>
<!-- Created with Inkscape (http://www.inkscape.org/) -->

<svg
   version="1.1"
   id="svg2"
   viewBox="0 0 682.66669 682.66669"
   sodipodi:docname="4photoshop-ir-Soroush-vector-logo.eps"
   xmlns:inkscape="http://www.inkscape.org/namespaces/inkscape"
   xmlns:sodipodi="http://sodipodi.sourceforge.net/DTD/sodipodi-0.dtd"
   xmlns="http://www.w3.org/2000/svg"
   xmlns:svg="http://www.w3.org/2000/svg">
  <defs
     id="defs6" />
  <sodipodi:namedview
     id="namedview4"
     pagecolor="#ffffff"
     bordercolor="#000000"
     borderopacity="0.25"
     inkscape:showpageshadow="2"
     inkscape:pageopacity="0.0"
     inkscape:pagecheckerboard="0"
     inkscape:deskcolor="#d1d1d1" />
  <g
     id="g8"
     inkscape:groupmode="layer"
     inkscape:label="ink_ext_XXXXXX"
     transform="matrix(1.3333333,0,0,-1.3333333,0,682.66667)">
    <g
       id="g10"
       transform="scale(0.1)">
      <path
         d="m 2421.1,5120 h 283.3 c 120.7,-17.1 243,-24.3 362,-52.4 -44.8,-25.1 -101.1,3.1 -143.2,-20.5 -67.8,-105.7 -156.7,-197.5 -255.9,-274.4 -92.7,-103.2 -220.4,-160.9 -342.1,-221.2 -74.1,-18.7 -141.9,-54.5 -211.9,-83.8 -90.3,-25.6 -185.5,-20.9 -277.2,-38.5 -117.2,5.5 -237.9,-7.4 -351.6,26.9 -125,2.2 -234.8,71.8 -345,123.4 -47.6,36.6 -96.3,-17.9 -147.699,-12.7 371.599,302.1 833.199,491.7 1309.599,539.3 40,3.8 80.1,7.1 119.7,13.9"
         style="fill:#fff;fill-opacity:1;fill-rule:nonzero;stroke:none"
         id="path12" />
      <path
         d="m 3066.4,5067.6 c 119.1,-23.5 236.5,-56.4 350.1,-99.5 -33.8,-2.2 -67.8,-1.3 -101.4,3.4 -102.9,-120.4 -174.4,-266.2 -295.9,-371.7 -38.1,-32.5 -80.4,-60.8 -111.2,-100.9 -33.3,-44.4 -98,-53.4 -121.5,-106.7 -61.2,-9.3 -94,-68.5 -149.6,-89.9 -121.5,-55.6 -239.3,-120.8 -367.4,-160.4 -116.7,-15.3 -228.9,-54.8 -347.7,-56.1 -157.7,-44.3 -319.1,0.5 -477.2,15.4 -112.9,29.3 -229.2,47.1 -338.5,89 -102.8,56.2 -218.998,89.3 -311.401,163.6 0.199,12.8 0.403,25.5 0.403,38.3 62.898,61.1 127.5,120.7 196.699,174.7 51.399,-5.2 100.099,49.3 147.699,12.7 110.2,-51.6 220,-121.2 345,-123.4 113.7,-34.3 234.4,-21.4 351.6,-26.9 91.7,17.6 186.9,12.9 277.2,38.5 70,29.3 137.8,65.1 211.9,83.8 121.7,60.3 249.4,118 342.1,221.2 99.2,76.9 188.1,168.7 255.9,274.4 42.1,23.6 98.4,-4.6 143.2,20.5"
         style="fill:#fff;fill-opacity:1;fill-rule:nonzero;stroke:none"
         id="path14" />
      <path
         d="m 3315.1,4971.5 c 33.6,-4.7 67.6,-5.6 101.4,-3.4 127.3,-43.6 248.9,-102.3 366.7,-167 -18.5,-12.3 -39.7,-22.2 -53.7,-40 -116.5,-229.4 -298.9,-415.3 -475.2,-598.8 9,-8 18,-16.1 27.3,-23.9 -312.9,27.5 -625.2,-112.3 -831.9,-344.7 -46,3.3 -61.9,-47 -91.2,-72.5 -36.1,-39.7 -94.9,-21.5 -141,-37.9 -195,-61.2 -401.3,-54.7 -603.2,-54.8 -97.5,19.9 -197.3,25 -295.2,42 -100.2,37.7 -211.5,35.2 -309.2,79.8 -174.4,65.4 -339.201,155 -499.099,250.1 -22.301,-26 -46.5,-51.5 -78,-66.4 101.301,166.9 225,319.6 362.301,458.1 0,-12.8 -0.204,-25.5 -0.403,-38.3 92.403,-74.3 208.601,-107.4 311.401,-163.6 109.3,-41.9 225.6,-59.7 338.5,-89 158.1,-14.9 319.5,-59.7 477.2,-15.4 118.8,1.3 231,40.8 347.7,56.1 128.1,39.6 245.9,104.8 367.4,160.4 55.6,21.4 88.4,80.6 149.6,89.9 23.5,53.3 88.2,62.3 121.5,106.7 30.8,40.1 73.1,68.4 111.2,100.9 121.5,105.5 193,251.3 295.9,371.7"
         style="fill:#fff;fill-opacity:1;fill-rule:nonzero;stroke:none"
         id="path16" />
      <path
         d="m 3783.2,4801.1 c 138.2,-77.8 269,-168.6 390.4,-270.8 -56.5,-43 -107.2,-95.6 -131,-164 -62.7,-91.6 -125.4,-184.9 -205.8,-262.5 -66.8,-91.2 -140.4,-177.8 -220.5,-257.7 -2.8,4.4 -8.4,13.2 -11.2,17.6 -32.4,-55.2 -96.1,-79 -133.7,-129.4 -46.2,-65.9 -135.2,-78 -187.5,-137.5 -22.5,-24.6 -50.9,-60.9 -88.8,-43.2 -26.4,28.7 -42.5,64.8 -64.2,96.8 -0.8,-5.8 -2.4,-17.3 -3.2,-23.1 -62.6,181.4 15.9,388.3 165.6,502 -2.9,2.3 -8.8,6.8 -11.7,9.1 -9.3,7.8 -18.3,15.9 -27.3,23.9 176.3,183.5 358.7,369.4 475.2,598.8 14,17.8 35.2,27.7 53.7,40"
         style="fill:#fff;fill-opacity:1;fill-rule:nonzero;stroke:none"
         id="path18" />
      <path
         d="m 4173.6,4530.3 c 120.6,-101.3 230.7,-214.8 330.4,-336.8 -94.1,-4.7 -115.7,-110.4 -170,-168.4 -64.2,-64.7 -90.7,-158.6 -164.9,-214.5 -35.3,-25.4 -50.8,-67.4 -79.3,-98.4 -54.3,-35.9 -88.6,-92.6 -138.8,-133.3 -107.8,-120.3 -238.4,-217.8 -373.2,-305.9 -45.7,-32.4 -84.9,-74.2 -136.7,-97.3 -38.6,35.2 -70.8,78 -116.7,104.4 -79.7,106.5 -154.6,220.2 -196.7,347.2 0.8,5.8 2.4,17.3 3.2,23.1 21.7,-32 37.8,-68.1 64.2,-96.8 37.9,-17.7 66.3,18.6 88.8,43.2 52.3,59.5 141.3,71.6 187.5,137.5 37.6,50.4 101.3,74.2 133.7,129.4 2.8,-4.4 8.4,-13.2 11.2,-17.6 80.1,79.9 153.7,166.5 220.5,257.7 80.4,77.6 143.1,170.9 205.8,262.5 23.8,68.4 74.5,121 131,164"
         style="fill:#fff;fill-opacity:1;fill-rule:nonzero;stroke:none"
         id="path20" />
      <path
         d="m 4334,4025.1 c 54.3,58 75.9,163.7 170,168.4 112.5,-139.6 210.9,-290.6 291,-451.1 -19.3,18 -40.3,33.9 -61.2,49.9 -127.7,-144.7 -227.1,-313.4 -366.8,-447.4 -3.4,5.2 -10.2,15.8 -13.6,21.1 -6.8,-21.2 -12.8,-43.9 -29.2,-60.1 -126.4,-138.4 -280,-246.9 -424.1,-365.6 -65.5,-52.7 -144.3,-87.5 -199.2,-153.3 -35.6,47.1 -62.6,104.1 -116.9,133.1 -79.4,125.1 -174.5,239 -259.6,360 45.9,-26.4 78.1,-69.2 116.7,-104.4 51.8,23.1 91,64.9 136.7,97.3 134.8,88.1 265.4,185.6 373.2,305.9 50.2,40.7 84.5,97.4 138.8,133.3 28.5,31 44,73 79.3,98.4 74.2,55.9 100.7,149.8 164.9,214.5"
         style="fill:#fff;fill-opacity:1;fill-rule:nonzero;stroke:none"
         id="path22" />
      <path
         d="m 2449.7,3793.7 c 206.7,232.4 519,372.2 831.9,344.7 2.9,-2.3 8.8,-6.8 11.7,-9.1 -149.7,-113.7 -228.2,-320.6 -165.6,-502 42.1,-127 117,-240.7 196.7,-347.2 85.1,-121 180.2,-234.9 259.6,-360 69.5,-117.6 128.5,-241.5 168.8,-372.2 47.5,-169.6 68.2,-348.1 45.6,-523.4 -16.9,-135.3 -60.7,-266.5 -126.1,-385.9 -168.8,-286.6 -456.4,-491.5 -770.7,-590.9 -445.1,-143.501 -954.9,-53.899 -1325.7,230.9 -103.6,87.4 -213.2,177.2 -280.1,297 52,-7.9 96,-38.6 145.4,-54.6 227.3,-75.3 493.6,-34.1 678.3,121.5 129.3,103.1 222,252.4 254,414.8 31.2,150.1 7.9,305.8 -35,451.1 -37.5,139.6 -90.5,274.9 -118.3,417 -22.4,133 -23.3,269.7 2.6,402.2 35.6,171.1 113.4,333.1 226.9,466.1"
         style="fill:#000;fill-opacity:1;fill-rule:nonzero;stroke:none"
         id="path24" />
      <path
         d="m 432.801,3934 c 31.5,14.9 55.699,40.4 78,66.4 159.898,-95.1 324.699,-184.7 499.099,-250.1 97.7,-44.6 209,-42.1 309.2,-79.8 97.9,-17 197.7,-22.1 295.2,-42 201.9,0.1 408.2,-6.4 603.2,54.8 46.1,16.4 104.9,-1.8 141,37.9 29.3,25.5 45.2,75.8 91.2,72.5 -113.5,-133 -191.3,-295 -226.9,-466.1 -1.8,8.7 -5.2,26 -7,34.7 -15.3,-37.6 -27.8,-76.4 -38.9,-115.5 -160.1,-43.9 -326.4,-37.2 -490.4,-39.4 -208.4,12.2 -420.8,28.9 -618.2,99.5 -186.698,38 -364.198,113.8 -535.3,196.3 -68.102,48.4 -153.102,73.3 -207.699,139.4 -28,-25.8 -51,-56.8 -81.199,-80.1 51.097,129.3 114.5,253.9 188.699,371.5"
         style="fill:#fff;fill-opacity:1;fill-rule:nonzero;stroke:none"
         id="path26" />
      <path
         d="m 4367,3344.9 c 139.7,134 239.1,302.7 366.8,447.4 20.9,-16 41.9,-31.9 61.2,-49.9 66.3,-131 121.1,-268 161.6,-409.2 -18.8,14.7 -36.1,31.1 -53.2,47.5 -89.8,-61.9 -115,-179.8 -211.2,-233.2 -161.1,-165.4 -322.4,-332.4 -508.8,-469.9 -114.9,-65.7 -209,-163.8 -328.5,-222 -64.1,-27.6 -52.7,75.4 -102.1,92.3 -40.3,130.7 -99.3,254.6 -168.8,372.2 54.3,-29 81.3,-86 116.9,-133.1 54.9,65.8 133.7,100.6 199.2,153.3 144.1,118.7 297.7,227.2 424.1,365.6 16.4,16.2 22.4,38.9 29.2,60.1 3.4,-5.3 10.2,-15.9 13.6,-21.1"
         style="fill:#fff;fill-opacity:1;fill-rule:nonzero;stroke:none"
         id="path28" />
      <path
         d="m 244.102,3562.5 c 30.199,23.3 53.199,54.3 81.199,80.1 54.597,-66.1 139.597,-91 207.699,-139.4 171.102,-82.5 348.602,-158.3 535.3,-196.3 197.4,-70.6 409.8,-87.3 618.2,-99.5 164,2.2 330.3,-4.5 490.4,39.4 11.1,39.1 23.6,77.9 38.9,115.5 1.8,-8.7 5.2,-26 7,-34.7 -25.9,-132.5 -25,-269.2 -2.6,-402.2 -5.1,-41.5 -10.6,-82.9 -13.3,-124.7 -221.7,-48.6 -449.7,-34.9 -674.6,-33.8 -125.5,38.5 -262.9,5.5 -384.4,60.8 -136.1,22.8 -272.701,54.4 -399.9,109.4 -155.5,45.7 -310.602,103.2 -444.5,196 -47.699,23.6 -102.5,33.2 -143.199,69.9 -12.102,-28.3 -24.403,-56.6 -37.602,-84.5 -1.398,8.6 -4.199,25.6 -5.597,34.2 29.597,140 71.296,277.8 127,409.8"
         style="fill:#fff;fill-opacity:1;fill-rule:nonzero;stroke:none"
         id="path30" />
      <path
         d="m 4692.2,3147.5 c 96.2,53.4 121.4,171.3 211.2,233.2 17.1,-16.4 34.4,-32.8 53.2,-47.5 42.9,-140.4 71.7,-285.2 87.4,-431.1 -2.7,-14.7 -5.6,-29.3 -8.6,-44 -11,19.4 -21.7,38.8 -32.3,58.3 -38.9,-34.5 -77.5,-70 -104,-115.4 -42.8,-71 -123.5,-102.7 -176.2,-164.1 -48.8,-51 -109.6,-89.1 -156.2,-142.4 -47.5,-59.1 -124.9,-80.5 -178.1,-133.3 -32.1,-33.2 -70.8,-58.2 -111.1,-80.2 -39.5,-20.2 -57.2,-68.7 -100.6,-82.3 -43.6,-15 -72.9,-54.5 -116.2,-70.4 -79.3,-27.3 -133.1,-96.5 -210.7,-127.6 -17.1,8.3 -34.5,15.8 -51.6,23.8 22.6,175.3 1.9,353.8 -45.6,523.4 49.4,-16.9 38,-119.9 102.1,-92.3 119.5,58.2 213.6,156.3 328.5,222 186.4,137.5 347.7,304.5 508.8,469.9"
         style="fill:#fff;fill-opacity:1;fill-rule:nonzero;stroke:none"
         id="path32" />
      <path
         d="m 160.301,3203 c 40.699,-36.7 95.5,-46.3 143.199,-69.9 133.898,-92.8 289,-150.3 444.5,-196 127.199,-55 263.8,-86.6 399.9,-109.4 121.5,-55.3 258.9,-22.3 384.4,-60.8 224.9,-1.1 452.9,-14.8 674.6,33.8 2.7,41.8 8.2,83.2 13.3,124.7 27.8,-142.1 80.8,-277.4 118.3,-417 -22.4,-50.6 5.2,-105 2.2,-157.7 -197.6,-7.8 -392.3,-50 -590.6,-48.1 -61.3,-11 -121.9,-1.2 -181.1,14.8 -74.6,-12 -146.5,14.7 -220.6,17.7 -106.1,5 -210.7,26.8 -314.1,48.9 -50.3,-0.4 -95.402,22.7 -142.198,37.4 -82.5,29.5 -174.301,21.7 -251.204,68.2 C 443.301,2544.1 263.801,2643.9 75.8008,2724.2 72,2752 68.3984,2780 66.1016,2808 c 10.2968,115.7 25.0976,231.3 51.0004,344.7 1.398,-8.6 4.199,-25.6 5.597,-34.2 13.199,27.9 25.5,56.2 37.602,84.5"
         style="fill:#fff;fill-opacity:1;fill-rule:nonzero;stroke:none"
         id="path34" />
      <path
         d="m 4899.1,2801 c 26.5,45.4 65.1,80.9 104,115.4 10.6,-19.5 21.3,-38.9 32.3,-58.3 3,14.7 5.9,29.3 8.6,44 24.4,-218.1 20.6,-439.7 -13.5,-656.5 -6.3,42.1 -15.2,83.8 -23,125.6 -88.9,-35.5 -129.2,-131.7 -212,-176.6 -202.8,-172.9 -431.6,-310.1 -649.8,-461.6 -83.2,-43.7 -176.2,-69 -251.4,-127.5 -95.1,-53.1 -194.8,-100.5 -298.2,-135.4 19.9,59 83.7,101.3 76.2,168.5 65.4,119.4 109.2,250.6 126.1,385.9 17.1,-8 34.5,-15.5 51.6,-23.8 77.6,31.1 131.4,100.3 210.7,127.6 43.3,15.9 72.6,55.4 116.2,70.4 43.4,13.6 61.1,62.1 100.6,82.3 40.3,22 79,47 111.1,80.2 53.2,52.8 130.6,74.2 178.1,133.3 46.6,53.3 107.4,91.4 156.2,142.4 52.7,61.4 133.4,93.1 176.2,164.1"
         style="fill:#fff;fill-opacity:1;fill-rule:nonzero;stroke:none"
         id="path36" />
      <path
         d="m 90.3984,2235.8 c -30.2968,189 -35.7968,381.3 -24.2968,572.2 2.2968,-28 5.8984,-56 9.6992,-83.8 188.0002,-80.3 367.5002,-180.1 565.0972,-234.6 76.903,-46.5 168.704,-38.7 251.204,-68.2 46.796,-14.7 91.898,-37.8 142.198,-37.4 103.4,-22.1 208,-43.9 314.1,-48.9 74.1,-3 146,-29.7 220.6,-17.7 59.2,-16 119.8,-25.8 181.1,-14.8 198.3,-1.9 393,40.3 590.6,48.1 3,52.7 -24.6,107.1 -2.2,157.7 42.9,-145.3 66.2,-301 35,-451.1 -2.4,15 -4.9,29.8 -7.7,44.6 -17.2,-41.2 -22,-90.7 -53.8,-123.7 -60.5,-24.3 -128.1,-19.8 -192,-28 -317.2,-46.3 -638.7,-8.6 -955.5,22.6 -354.801,56.7 -703.5,154.9 -1030.301,305.9 -14.398,-14.4 -29.301,-28.5 -43.8006,-42.9"
         style="fill:#fff;fill-opacity:1;fill-rule:nonzero;stroke:none"
         id="path38" />
      <path
         d="m 4795.5,2194.6 c 82.8,44.9 123.1,141.1 212,176.6 7.8,-41.8 16.7,-83.5 23,-125.6 -30.4,-206.8 -88.3,-409.8 -171.5,-601.6 -0.6,29.4 -2.6,58.6 -4,87.9 -140.6,-65.6 -245,-185.6 -383.4,-254.3 -65.6,-51.6 -139.8,-89.2 -214.9,-124.5 -122.6,-77 -252.6,-141.4 -387.5,-193.8 -108,-54.6 -219.8,-100.4 -332,-145 -41.7,-9.5 -84.8,-16.101 -121.4,-40.101 C 3368.5,944.5 3309.6,959.898 3259.9,938.801 3182.4,894.199 3092.3,883 3009,853 2864,846.602 2731.4,773.199 2586.2,773.301 2471.1,745.898 2352.7,739.5 2236.8,717.301 1853.4,706.801 1469.2,693.5 1087.2,739.5 1035.5,750.301 974.602,775.801 931.199,730.801 752.102,883.898 595.398,1062.9 466.301,1259.9 c 85.699,52.2 172,-21.9 257.5,-34.8 96.898,-10.1 192.398,-31.5 289.599,-38 45.6,-24.8 95.8,-28.7 146.9,-25.7 119.5,-22.9 242,-37.3 363.9,-26.8 71.5,-5.9 143.3,-16.2 214.9,-2.2 -55.1,46.7 -137.4,73.2 -163.2,146.2 370.8,-284.799 880.6,-374.401 1325.7,-230.9 314.3,99.4 601.9,304.3 770.7,590.9 7.5,-67.2 -56.3,-109.5 -76.2,-168.5 103.4,34.9 203.1,82.3 298.2,135.4 75.2,58.5 168.2,83.8 251.4,127.5 218.2,151.5 447,288.7 649.8,461.6"
         style="fill:#fff;fill-opacity:1;fill-rule:nonzero;stroke:none"
         id="path40" />
      <path
         d="m 90.3984,2235.8 c 14.4996,14.4 29.4026,28.5 43.8006,42.9 326.801,-151 675.5,-249.2 1030.301,-305.9 316.8,-31.2 638.3,-68.9 955.5,-22.6 63.9,8.2 131.5,3.7 192,28 31.8,33 36.6,82.5 53.8,123.7 2.8,-14.8 5.3,-29.6 7.7,-44.6 -32,-162.4 -124.7,-311.7 -254,-414.8 -59.3,-1 -102.6,-47.3 -156,-66.2 -69.5,-34.3 -147.8,-12.9 -221.5,-22.4 -70.6,-9.8 -141.2,5.3 -212,0.9 -62.2,-3 -121,19.6 -180,35.7 -34.7,10.9 -68.4,-12.4 -103.4,-6.3 -65,11.6 -132.1,8.5 -195.5,28.7 -79.799,24.3 -165.202,18.9 -244.702,44.2 C 693.301,1695 571.5,1703.2 462,1752.6 c -78.5,26.6 -157,54.9 -237.898,73.4 4.296,-20.9 8.296,-41.8 12.699,-62.8 -4.199,-4.8 -12.5,-14.5 -16.699,-19.3 -59.903,159 -103.5,324.1 -129.7036,491.9"
         style="fill:#fff;fill-opacity:1;fill-rule:nonzero;stroke:none"
         id="path42" />
      <path
         d="M 224.102,1826 C 305,1807.5 383.5,1779.2 462,1752.6 c 109.5,-49.4 231.301,-57.6 344.398,-95.5 79.5,-25.3 164.903,-19.9 244.702,-44.2 63.4,-20.2 130.5,-17.1 195.5,-28.7 35,-6.1 68.7,17.2 103.4,6.3 59,-16.1 117.8,-38.7 180,-35.7 70.8,4.4 141.4,-10.7 212,-0.9 73.7,9.5 152,-11.9 221.5,22.4 53.4,18.9 96.7,65.2 156,66.2 -184.7,-155.6 -451,-196.8 -678.3,-121.5 -49.4,16 -93.4,46.7 -145.4,54.6 66.9,-119.8 176.5,-209.6 280.1,-297 25.8,-73 108.1,-99.5 163.2,-146.2 -71.6,-14 -143.4,-3.7 -214.9,2.2 -121.9,-10.5 -244.4,3.9 -363.9,26.8 -51.1,-3 -101.3,0.9 -146.9,25.7 -97.201,6.5 -192.701,27.9 -289.599,38 -85.5,12.9 -171.801,87 -257.5,34.8 -99.301,151.8 -182.199,314.3 -246.199,484 4.199,4.8 12.5,14.5 16.699,19.3 -4.403,21 -8.403,41.9 -12.699,62.8"
         style="fill:#fff;fill-opacity:1;fill-rule:nonzero;stroke:none"
         id="path44" />
      <path
         d="m 4471.6,1477.6 c 138.4,68.7 242.8,188.7 383.4,254.3 1.4,-29.3 3.4,-58.5 4,-87.9 -152.3,-360.6 -394.2,-682.199 -693.8,-933.602 -2.2,-57.898 -4,-115.796 -4.5,-173.796 -13.1,64.296 -25.5,129.597 -19.1,195.5 -89.6,-29.403 -164.8,-92.5 -258,-111.801 C 3813.7,602.398 3750.7,565.5 3688,531 c -7.2,2.801 -14.3,5.5 -21.4,8.199 C 3626.9,507.898 3577.2,498.301 3529,487.898 3471.4,469 3415,445.301 3354.6,436.5 c -3.6,-4.301 -7.1,-8.602 -10.5,-13 -60.1,-15.801 -120.9,-26.398 -182.2,-35.801 -147.2,-60.097 -305.2,-87.398 -462,-109.5 -76.3,-27.301 -159,-10.097 -235.3,-36.898 -53.1,-19.199 -109.9,4 -163,-15.102 -73.5,-21.398 -172.8,22.602 -225.4,-50.898 -421.3,81.5 -819.9,275.597 -1145.001,555.5 43.403,45 104.301,19.5 156.001,8.699 382,-46 766.2,-32.699 1149.6,-22.199 115.9,22.199 234.3,28.597 349.4,56 145.2,-0.102 277.8,73.301 422.8,79.699 83.3,30 173.4,41.199 250.9,85.801 49.7,21.097 108.6,5.699 155.9,35.398 36.6,24 79.7,30.601 121.4,40.101 112.2,44.6 224,90.4 332,145 134.9,52.4 264.9,116.8 387.5,193.8 75.1,35.3 149.3,72.9 214.9,124.5"
         style="fill:#fff;fill-opacity:1;fill-rule:nonzero;stroke:none"
         id="path46" />
      <path
         d="m 3883.6,620.301 c 93.2,19.301 168.4,82.398 258,111.801 -6.4,-65.903 6,-131.204 19.1,-195.5 4.2,-165.801 2.2,-331.801 0.8,-497.7036 C 4155.1,25.3008 4146.7,12.8008 4138.7,0 h -40.4 C 3901.4,102.602 3708.3,212.801 3511.8,316.102 3061.2,128.898 2554.6,80.3984 2076.2,175.301 c 52.6,73.5 151.9,29.5 225.4,50.898 53.1,19.102 109.9,-4.097 163,15.102 76.3,26.801 159,9.597 235.3,36.898 156.8,22.102 314.8,49.403 462,109.5 61.3,9.403 122.1,20 182.2,35.801 3.4,4.398 6.9,8.699 10.5,13 60.4,8.801 116.8,32.5 174.4,51.398 48.2,10.403 97.9,20 137.6,51.301 7.1,-2.699 14.2,-5.398 21.4,-8.199 62.7,34.5 125.7,71.398 195.6,89.301"
         style="fill:#fff;fill-opacity:1;fill-rule:nonzero;stroke:none"
         id="path48" />
      <path
         d="m 4160.7,536.602 c 0.5,58 2.3,115.898 4.5,173.796 1.4,-223.699 7.4,-448.296 -3.7,-671.4996 1.4,165.9026 3.4,331.9026 -0.8,497.7036"
         style="fill:#fff;fill-opacity:1;fill-rule:nonzero;stroke:none"
         id="path50" />
    </g>
  </g>
</svg>
